<svg xmlns="http://www.w3.org/2000/svg" id="Layer_2" data-name="Layer 2" viewBox="0 0 484.05 484.02"><defs><style>.cls-1{fill:#0a808d}</style></defs><g id="Layer_1-2" data-name="Layer 1"><g><path d="M276.04,425.04c2.98,7.66,7.79,15.32,12.19,22.31,1.27,2.01,6.97,7.66,5.8,9.69-2.36-.81-4.92-.98-7.43-1.03-82.64-1.55-165.46,1.62-248.11-.02-22.32-.44-34.93-6.31-38.49-30.41L.05,30.55C1.59,13.43,14.41,1.06,31.55.05l263.02-.05c19.95,2.07,30.16,15.04,31.5,34.5l-.06,244.02-1.45,2.55-18.53,11.96c.49-9.21-2.59-18.78-6.46-27.04-.82-1.76-5.54-7.84-5.54-8.46V32.04h-66v44h-54v349h102ZM98.04,32.04H32.04v393h118.5l1.5-1.5V76.04h-54v-41.5c0-.61-.8-1.53,0-2.5Z" class="cls-1"/><path d="M279.04,358.04c1.33-.36,1.78.38,2.68.81,18.85,8.86,57.05,41.12,74.92,43.08,33.52,3.67,50.81-37.92,23.72-59.72-18.43-14.84-44.6-25.82-64.04-39.96l-1.28-1.7c51.15-42.67,130.24-24.73,158.85,35.13,28.66,59.97-5.96,131.92-70.85,145.87-75.09,16.14-138.78-49.13-124-123.5Z" class="cls-1"/><path d="M189.04,292.04l39.58,23.02,21.22-14.72,4.02-24.72-38.8-25.09c30.04-20.12,72.57-1.71,79.7,33.28,1.31,6.43.73,12.59,2.2,18.8l76.01,46.99c20.65,15.22,7.77,46.53-18.21,41.21l-81.49-49.61c-2.97-.73-6.45,2.82-9.56,4.01-38.63,14.75-76.58-11.85-74.67-53.17Z" class="cls-1"/><path d="M126.69,142.39c.84.76,3.03,4,3.42,5.08l.26,193.41c-1.99,4.86-6.8,8.38-11.93,9.07-8.68,1.18-46.49,1.33-54.47-.36-5.55-1.17-10.27-6.28-10.97-12.03l.24-187.8c1.4-5.25,5.79-9.78,11.34-10.66,9.59-1.51,43.83-1.21,53.94-.07,2.81.32,6.07,1.46,8.15,3.35ZM112.8,157.27c-1.56-1.13-3.39-1.13-5.22-1.28-8.23-.69-21.76-.57-30.08,0-2.16.15-4.35-.06-6.22,1.28-1.13,1.56-1.13,3.39-1.28,5.22-.69,8.23-.57,21.76,0,30.08.15,2.16-.06,4.35,1.28,6.22,1.56,1.13,3.39,1.13,5.22,1.28,8.23.69,21.76.57,30.08,0,2.16-.15,4.35.06,6.22-1.28,1.13-1.56,1.13-3.39,1.28-5.22.69-8.23.57-21.76,0-30.08-.15-2.16.06-4.35-1.28-6.22ZM112.04,239.04l-19.51-30c-1.37-.34-8.31,10.24-9.72,12.27-3.79,5.45-8.26,11.73-10.77,17.73h14v24h12v-24h14ZM98.04,277.04l-12,1v24h-14l19.51,30c1.45.36,1.64-.92,2.34-1.65,2.93-3.11,8.2-11.9,10.97-16.03,2.55-3.81,5.94-7.88,7.18-12.32h-14v-25Z" class="cls-1"/><path d="M100.73,163.35c9.04,8.47-4.25,19.74-9.69,25.67l12.06.45.94,5.56h-23c-1.67-9.16,15.37-16.72,15.98-23.56.44-4.94-5.02-7.09-7.99-3.92-2.47,2.63.35,4.72-7.98,3.48-.14-9.73,13.69-13.29,19.69-7.68Z" class="cls-1"/></g></g></svg>