<?xml version="1.0" encoding="UTF-8"?>
<?xml-stylesheet href="./svg.css" type="text/css"?>
<svg id="Layer_2" data-name="Layer 2" xmlns="http://www.w3.org/2000/svg" viewBox="0 0 260.13 259.61">
  <defs>
    <style>
      .cls-1 {
         fill:#0a808d;

      }

    </style>
  </defs>
  <g id="Layer_1-2" data-name="Layer 1">
    <g>
      <path class="cls-1" d="M127.41,27.86v152.84l-.8.8h-56.48v-73.61c20.32-17.69,20.79-50.58,0-67.99v-12.04h57.28Z"/>
      <path class="cls-1" d="M190.04,27.86v112.42l-22.42,9.17c-.39.6,1.47,10.68,1.54,12.52.44,11.27-12.93,5.91-19.75,5.65l-5.4,13.88h-10.71V27.86h56.75Z"/>
      <path class="cls-1" d="M64.24,35.35c-5.15-3.5-11.25-5.12-17.16-6.75,1.41-8.64-4.48-26.61,7.93-28.44l149.24-.16c5.36.48,8.35,3.45,8.83,8.83v133.88c-.21,1.54-5.59,8.87-6.82,9.23-.81.24-5.96.29-6.47,0-.27-.16-3.86-4.65-3.86-4.97V21.97H64.24v13.38ZM102.64,3.89c-7.46,1.55-6.63,13.66,1.48,14.04,10.93.52,10.1-16.45-1.48-14.04ZM151.88,3.88c-.74.17-1.14.56-1.72.96-7.43,5.12-.32,17.08,8.14,11.89,6.7-4.12,2.44-14.87-6.42-12.84Z"/>
      <path class="cls-1" d="M0,186.32c4.42-7.38,10.8-13.61,18.99-16.61,17.75-6.49,35.82,1.29,44.85,17.31,24.53.06,49.47,1.17,74.03.4,1.03-.03,1.92-.42,2.91-.56.25,1.42-.97,2.91-.29,4.28s9.54,6.89,11.24,8.6c1.17,1.44,1.23,5.1.32,6.69-1.44,2.54-9.21,6.87-11.56,9.34l.29,3.2h-76.29c-1.27.24-5.07,7.13-6.69,8.83-10.3,10.87-27.06,14.06-40.81,8.16-6.66-2.86-13.39-8.79-16.47-15.38h22.75l10.25-17.4-9.72-16.86H0Z"/>
      <path class="cls-1" d="M232.79,152.66c.76,1.17-1.49,11.39-1.51,13.66-.02,2.1,2.15,2.64,3.47,3.92,1.55,1.51,2.95,3.1,4.35,4.74l14.63-1.28,6.2,14.18c.15,1.66-10.1,7.71-11.02,9.93l.12,11.4,11.08,8.46-5.93,14.58-15.05-1.03-7.36,7.38,1.38,14.61-15.21,6.37-8.48-11.2-11.82.13-8.46,11.05-15.16-5.86c-.37-.51,1.58-10.7,1.61-12.53.05-3.62-1.54-3.09-3.54-5.07-1.54-1.53-2.82-3.24-4.38-4.74l-14.54,1.44-5.89-13.7c-.28-1.09.6-1.63,1.25-2.3,1.72-1.78,9.64-6.75,9.94-8.28.31-1.65-.59-3.21-.59-4.81,0-1.81,1.06-4.93.3-6.16l-11.01-8.4,5.44-15.1,14.91,1.3,7.93-8.11-1.41-14.6,14.54-5.34,9.4,10.89,10.82-.02,9.33-11.32,14.66,5.79ZM226.26,180.62c-28.07-28.36-73.43,11.75-47.44,42.89,28.4,34.02,78.45-11.57,47.44-42.89Z"/>
      <path class="cls-1" d="M38.99,33.88c51.84-1.13,54.49,76.64,3.59,79.66-53.98,3.2-56.6-78.51-3.59-79.66ZM42.83,48.74c1.71.82,2.5,3.26,4.55,3.27,1.5,0,4.07-2.53,3.78-3.85-.15-.68-8.78-9.65-9.64-10.15-1.31-.77-1.96-.77-3.27,0-.86.5-9.49,9.47-9.64,10.15-.29,1.32,2.28,3.86,3.78,3.85,2.05,0,2.84-2.45,4.55-3.27v19.81c2.12.68,4.23,1.02,5.89-.8v-19ZM43.36,98.52v-18.47c0-1.83-6.42-1.83-6.42,0v18.47c-1.47-.75-3.07-3.64-4.97-3.14-1.2.31-3.37,2.98-2.98,4.36.32,1.15,9.36,9.86,11.35,10.44.98-.09,10.73-9.56,10.98-10.44.39-1.38-1.78-4.05-2.98-4.36-1.9-.5-3.5,2.39-4.97,3.14Z"/>
      <path class="cls-1" d="M64.24,112.44v64.78c-4.82-5.1-10.22-10.23-17.06-12.39l-.07-46.5c6.23-.25,11.7-3.26,17.13-5.89Z"/>
    </g>
  </g>
</svg>