<?xml-stylesheet href="./svg.css" type="text/css"?><svg xmlns="http://www.w3.org/2000/svg" id="Layer_2" data-name="Layer 2" viewBox="0 0 264 292.98"><defs><style>.cls-1{fill:#0a808d}</style></defs><g id="Layer_1-2" data-name="Layer 1"><g><polygon points="19 38.98 19 274.98 245 274.98 245 38.98 264 38.98 264 291.48 262.5 292.98 1.5 292.98 0 291.48 0 38.98 19 38.98" class="cls-1"/><path d="M52.73,138.21c18.75,1.59,43.69-2.95,61.71-.16,12.55,1.94,14.62,19.15,12.04,28.91-6.93,26.23-23.76,54.85-31.6,81.4-4.76,9.88-15.9,10.46-21.43.68-13.12-23.21-19.57-58.43-32.15-82.85-3.39-8.73,1.29-25.92,11.44-27.98Z" class="cls-1"/><path d="M150.73,138.21c18.75,1.59,43.69-2.95,61.71-.16,12.55,1.94,14.62,19.15,12.04,28.91-6.91,26.17-23.8,54.89-31.6,81.4-4.59,10.06-16.06,10.46-21.43.67-8-27.05-25.05-56.1-32.15-82.85-2.78-10.48.31-23.99,11.44-27.98Z" class="cls-1"/><path d="M221.35,17.33c-9.85,10.58-20.31,20.13-30.41,30.12-1.97,1.95-8.18,10.84-10.31,10.46l-42.6-42.43,12.45-13.5,30.87,29.92L213.5,0l12.42,12.62c.38,2.15-3.45,3.5-4.57,4.71Z" class="cls-1"/><polygon points="84.64 2.05 127.98 44.48 114.64 56.91 84.64 28.05 52.64 58.91 40.02 46.48 84.64 2.05" class="cls-1"/><path d="M176.74,79.22c38.91-6.24,38.57,52.89.84,47.67-25.54-3.53-26.21-43.6-.84-47.67Z" class="cls-1"/><path d="M78.74,79.22c38.21-6.55,38.96,51.92,1.87,47.65-26.95-3.1-27.34-43.28-1.87-47.65Z" class="cls-1"/></g></g></svg>