<?xml version="1.0" encoding="UTF-8"?>
<svg id="Layer_2" data-name="Layer 2" xmlns="http://www.w3.org/2000/svg" viewBox="0 0 1393.89 852.35">
  <defs>
    <style>
      .cls-1 {
        fill: none;
        stroke: #000;
        stroke-miterlimit: 10;
        stroke-width: 1.23px;
      }
    </style>
  </defs>
  <g id="Layer_3" data-name="Layer 3">
    <g>
      <path d="M1296.04,88.75v718.03H1.23V88.75h1294.8M1297.27,87.51H0v720.49h1297.27V87.51h0Z"/>
      <path class="cls-1" d="M1202.36,88.02c4.13-48.96,45.17-87.4,95.2-87.4,52.77,0,95.54,42.77,95.54,95.54s-42.77,95.54-95.54,95.54"/>
      <path class="cls-1" d="M1327.46,5.4c11.64,4.1,36.32,16.53,50.01,38.39,7.61,12.15,17.22,33.99,15.62,60.5-.92,15.3-6.78,20.14-12.28,45.11-3,13.63-3.18,22.22-3.81,50.03-2.13,93.11-2.4,94.75-1.84,108.94,1.17,29.72,2.58,27.83,3.68,58.83,1.53,43.38,2.29,65.07-1.41,81.87-3.48,15.83-16.62,121.13-82.91,157.72"/>
      <rect class="cls-1" x="103.54" y="808.01" width="1090.2" height="43.72"/>
    </g>
  </g>
</svg>