<svg xmlns="http://www.w3.org/2000/svg" id="Layer_2" data-name="Layer 2" viewBox="0 0 1212.18 741.24"><defs><style>.cls-1{fill:none;stroke:#000;stroke-miterlimit:10;stroke-width:1.07px}</style></defs><g id="Layer_3" data-name="Layer 3"><g><path d="M1127.09,77.18v624.43H1.07V77.18h1126.02M1128.16,76.1H0v626.57h1128.16V76.1h0Z"/><path d="M1045.62,76.54c3.59-42.57,39.29-76.01,82.79-76.01,45.89,0,83.09,37.2,83.09,83.09s-37.2,83.09-83.09,83.09" class="cls-1"/><path d="M1154.41,4.69c10.12,3.57,31.58,14.38,43.49,33.39,6.62,10.57,14.98,29.56,13.58,52.61-.8,13.3-5.89,17.51-10.68,39.23-2.61,11.85-2.76,19.32-3.31,43.51-1.85,80.97-2.09,82.4-1.6,94.73,1.02,25.85,2.25,24.2,3.2,51.16,1.33,37.72,1.99,56.58-1.22,71.2-3.03,13.76-14.45,105.34-72.11,137.16" class="cls-1"/><rect width="948.08" height="38.02" x="90.04" y="702.67" class="cls-1"/></g></g></svg>